<mxfile host="app.diagrams.net" agent="Mozilla/5.0 (Windows NT 10.0; Win64; x64) AppleWebKit/537.36 (KHTML, like Gecko) Chrome/128.0.0.0 Safari/537.36" version="24.7.10">
  <diagram name="Page-1" id="19d8dcba-68ad-dc05-1034-9cf7b2a963f6">
    <mxGraphModel dx="1408" dy="748" grid="1" gridSize="10" guides="1" tooltips="1" connect="1" arrows="1" fold="1" page="1" pageScale="1" pageWidth="1100" pageHeight="850" background="none" math="0" shadow="0">
      <root>
        <mxCell id="0" />
        <mxCell id="1" parent="0" />
        <mxCell id="218ae93e1282097f-12" value="" style="whiteSpace=wrap;html=1;rounded=1;shadow=0;comic=0;strokeWidth=2;fontFamily=Verdana;align=center;fontSize=10;" parent="1" vertex="1">
          <mxGeometry x="70" y="440" width="300" height="130" as="geometry" />
        </mxCell>
        <mxCell id="218ae93e1282097f-13" value="Name" style="shape=actor;whiteSpace=wrap;html=1;rounded=0;shadow=0;comic=0;strokeWidth=1;fillColor=#CCCCCC;fontFamily=Verdana;align=center;strokeColor=none;labelPosition=center;verticalLabelPosition=bottom;verticalAlign=top;fontSize=10;" parent="1" vertex="1">
          <mxGeometry x="112" y="450" width="24" height="30" as="geometry" />
        </mxCell>
        <mxCell id="218ae93e1282097f-16" value="Name" style="shape=actor;whiteSpace=wrap;html=1;rounded=0;shadow=0;comic=0;strokeWidth=1;fillColor=#CCCCCC;fontFamily=Verdana;align=center;strokeColor=none;labelPosition=center;verticalLabelPosition=bottom;verticalAlign=top;fontSize=10;" parent="1" vertex="1">
          <mxGeometry x="205" y="450" width="24" height="30" as="geometry" />
        </mxCell>
        <mxCell id="218ae93e1282097f-17" value="Name" style="shape=actor;whiteSpace=wrap;html=1;rounded=0;shadow=0;comic=0;strokeWidth=1;fillColor=#CCCCCC;fontFamily=Verdana;align=center;strokeColor=none;labelPosition=center;verticalLabelPosition=bottom;verticalAlign=top;fontSize=10;" parent="1" vertex="1">
          <mxGeometry x="310" y="450" width="24" height="30" as="geometry" />
        </mxCell>
        <mxCell id="218ae93e1282097f-19" value="" style="whiteSpace=wrap;html=1;rounded=1;shadow=0;comic=0;strokeWidth=2;fontFamily=Verdana;align=center;fontSize=10;" parent="1" vertex="1">
          <mxGeometry x="420" y="440" width="340" height="130" as="geometry" />
        </mxCell>
        <mxCell id="218ae93e1282097f-21" value="Name" style="shape=actor;whiteSpace=wrap;html=1;rounded=0;shadow=0;comic=0;strokeWidth=1;fillColor=#CCCCCC;fontFamily=Verdana;align=center;strokeColor=none;labelPosition=center;verticalLabelPosition=bottom;verticalAlign=top;fontSize=10;" parent="1" vertex="1">
          <mxGeometry x="578" y="450" width="24" height="30" as="geometry" />
        </mxCell>
        <mxCell id="218ae93e1282097f-23" value="Name" style="shape=actor;whiteSpace=wrap;html=1;rounded=0;shadow=0;comic=0;strokeWidth=1;fillColor=#CCCCCC;fontFamily=Verdana;align=center;strokeColor=none;labelPosition=center;verticalLabelPosition=bottom;verticalAlign=top;fontSize=10;" parent="1" vertex="1">
          <mxGeometry x="678" y="450" width="24" height="30" as="geometry" />
        </mxCell>
        <mxCell id="218ae93e1282097f-24" value="" style="whiteSpace=wrap;html=1;rounded=1;shadow=0;comic=0;strokeWidth=2;fontFamily=Verdana;align=center;fontSize=10;" parent="1" vertex="1">
          <mxGeometry x="876" y="440" width="223" height="130" as="geometry" />
        </mxCell>
        <mxCell id="218ae93e1282097f-25" value="Name" style="shape=actor;whiteSpace=wrap;html=1;rounded=0;shadow=0;comic=0;strokeWidth=1;fillColor=#CCCCCC;fontFamily=Verdana;align=center;strokeColor=none;labelPosition=center;verticalLabelPosition=bottom;verticalAlign=top;fontSize=10;" parent="1" vertex="1">
          <mxGeometry x="925" y="450" width="24" height="30" as="geometry" />
        </mxCell>
        <mxCell id="218ae93e1282097f-27" value="Name" style="shape=actor;whiteSpace=wrap;html=1;rounded=0;shadow=0;comic=0;strokeWidth=1;fillColor=#CCCCCC;fontFamily=Verdana;align=center;strokeColor=none;labelPosition=center;verticalLabelPosition=bottom;verticalAlign=top;fontSize=10;" parent="1" vertex="1">
          <mxGeometry x="1025" y="450" width="24" height="30" as="geometry" />
        </mxCell>
        <mxCell id="218ae93e1282097f-29" value="" style="whiteSpace=wrap;html=1;rounded=1;shadow=0;comic=0;strokeWidth=2;fontFamily=Verdana;align=center;fontSize=10;" parent="1" vertex="1">
          <mxGeometry x="1197" y="440" width="300" height="130" as="geometry" />
        </mxCell>
        <mxCell id="218ae93e1282097f-34" value="" style="whiteSpace=wrap;html=1;rounded=1;shadow=0;comic=0;strokeWidth=2;fontFamily=Verdana;align=center;fontSize=10;" parent="1" vertex="1">
          <mxGeometry x="1600" y="440" width="410" height="130" as="geometry" />
        </mxCell>
        <mxCell id="218ae93e1282097f-35" value="Name" style="shape=actor;whiteSpace=wrap;html=1;rounded=0;shadow=0;comic=0;strokeWidth=1;fillColor=#CCCCCC;fontFamily=Verdana;align=center;strokeColor=none;labelPosition=center;verticalLabelPosition=bottom;verticalAlign=top;fontSize=10;" parent="1" vertex="1">
          <mxGeometry x="1643" y="450" width="24" height="30" as="geometry" />
        </mxCell>
        <mxCell id="218ae93e1282097f-37" value="Name" style="shape=actor;whiteSpace=wrap;html=1;rounded=0;shadow=0;comic=0;strokeWidth=1;fillColor=#CCCCCC;fontFamily=Verdana;align=center;strokeColor=none;labelPosition=center;verticalLabelPosition=bottom;verticalAlign=top;fontSize=10;" parent="1" vertex="1">
          <mxGeometry x="1743" y="450" width="24" height="30" as="geometry" />
        </mxCell>
        <mxCell id="218ae93e1282097f-38" value="Name" style="shape=actor;whiteSpace=wrap;html=1;rounded=0;shadow=0;comic=0;strokeWidth=1;fillColor=#CCCCCC;fontFamily=Verdana;align=center;strokeColor=none;labelPosition=center;verticalLabelPosition=bottom;verticalAlign=top;fontSize=10;" parent="1" vertex="1">
          <mxGeometry x="1843" y="450" width="24" height="30" as="geometry" />
        </mxCell>
        <mxCell id="218ae93e1282097f-39" value="Name" style="shape=actor;whiteSpace=wrap;html=1;rounded=0;shadow=0;comic=0;strokeWidth=1;fillColor=#CCCCCC;fontFamily=Verdana;align=center;strokeColor=none;labelPosition=center;verticalLabelPosition=bottom;verticalAlign=top;fontSize=10;" parent="1" vertex="1">
          <mxGeometry x="478" y="450" width="24" height="30" as="geometry" />
        </mxCell>
        <mxCell id="218ae93e1282097f-41" value="Name" style="shape=actor;whiteSpace=wrap;html=1;rounded=0;shadow=0;comic=0;strokeWidth=1;fillColor=#CCCCCC;fontFamily=Verdana;align=center;strokeColor=none;labelPosition=center;verticalLabelPosition=bottom;verticalAlign=top;fontSize=10;" parent="1" vertex="1">
          <mxGeometry x="1943" y="450" width="24" height="30" as="geometry" />
        </mxCell>
        <mxCell id="218ae93e1282097f-42" value="" style="edgeStyle=orthogonalEdgeStyle;rounded=1;html=1;labelBackgroundColor=none;endArrow=block;endFill=1;strokeColor=#4D4D4D;strokeWidth=2;fontFamily=Verdana;fontSize=12;fontStyle=1" parent="1" source="6257edae8c83ed4a-1" target="6257edae8c83ed4a-12" edge="1">
          <mxGeometry relative="1" as="geometry" />
        </mxCell>
        <mxCell id="218ae93e1282097f-43" value="" style="edgeStyle=orthogonalEdgeStyle;rounded=1;html=1;labelBackgroundColor=none;endArrow=block;endFill=1;strokeColor=#4D4D4D;strokeWidth=2;fontFamily=Verdana;fontSize=12;fontStyle=1" parent="1" source="6257edae8c83ed4a-1" target="6257edae8c83ed4a-9" edge="1">
          <mxGeometry relative="1" as="geometry" />
        </mxCell>
        <mxCell id="218ae93e1282097f-44" value="" style="edgeStyle=orthogonalEdgeStyle;rounded=1;html=1;labelBackgroundColor=none;endArrow=block;endFill=1;strokeColor=#4D4D4D;strokeWidth=2;fontFamily=Verdana;fontSize=12;fontStyle=1" parent="1" source="6257edae8c83ed4a-1" target="218ae93e1282097f-2" edge="1">
          <mxGeometry relative="1" as="geometry" />
        </mxCell>
        <mxCell id="218ae93e1282097f-45" value="" style="edgeStyle=elbowEdgeStyle;rounded=1;html=1;labelBackgroundColor=none;endArrow=block;endFill=1;strokeColor=#4D4D4D;strokeWidth=2;fontFamily=Verdana;fontSize=12;fontStyle=1" parent="1" source="6257edae8c83ed4a-9" target="6257edae8c83ed4a-21" edge="1">
          <mxGeometry relative="1" as="geometry" />
        </mxCell>
        <mxCell id="218ae93e1282097f-46" value="" style="edgeStyle=orthogonalEdgeStyle;rounded=1;html=1;labelBackgroundColor=none;endArrow=block;endFill=1;strokeColor=#4D4D4D;strokeWidth=2;fontFamily=Verdana;fontSize=12;fontStyle=1" parent="1" source="6257edae8c83ed4a-9" target="218ae93e1282097f-8" edge="1">
          <mxGeometry relative="1" as="geometry" />
        </mxCell>
        <mxCell id="218ae93e1282097f-47" value="" style="edgeStyle=orthogonalEdgeStyle;rounded=1;html=1;labelBackgroundColor=none;endArrow=block;endFill=1;strokeColor=#4D4D4D;strokeWidth=2;fontFamily=Verdana;fontSize=12;fontStyle=1" parent="1" source="218ae93e1282097f-2" target="218ae93e1282097f-5" edge="1">
          <mxGeometry relative="1" as="geometry" />
        </mxCell>
        <mxCell id="218ae93e1282097f-48" value="" style="edgeStyle=orthogonalEdgeStyle;rounded=1;html=1;labelBackgroundColor=none;endArrow=block;endFill=1;strokeColor=#4D4D4D;strokeWidth=2;fontFamily=Verdana;fontSize=12;fontStyle=1" parent="1" source="218ae93e1282097f-2" target="6257edae8c83ed4a-24" edge="1">
          <mxGeometry relative="1" as="geometry" />
        </mxCell>
        <mxCell id="218ae93e1282097f-49" value="" style="edgeStyle=elbowEdgeStyle;rounded=1;html=1;labelBackgroundColor=none;endArrow=block;endFill=1;strokeColor=#4D4D4D;strokeWidth=2;fontFamily=Verdana;fontSize=10;" parent="1" source="218ae93e1282097f-5" target="218ae93e1282097f-34" edge="1">
          <mxGeometry relative="1" as="geometry" />
        </mxCell>
        <mxCell id="218ae93e1282097f-50" value="" style="edgeStyle=orthogonalEdgeStyle;rounded=1;html=1;labelBackgroundColor=none;endArrow=block;endFill=1;strokeColor=#4D4D4D;strokeWidth=2;fontFamily=Verdana;fontSize=10;" parent="1" source="6257edae8c83ed4a-24" target="218ae93e1282097f-29" edge="1">
          <mxGeometry relative="1" as="geometry" />
        </mxCell>
        <mxCell id="218ae93e1282097f-51" value="" style="edgeStyle=elbowEdgeStyle;rounded=1;html=1;labelBackgroundColor=none;endArrow=block;endFill=1;strokeColor=#4D4D4D;strokeWidth=2;fontFamily=Verdana;fontSize=10;" parent="1" source="6257edae8c83ed4a-12" target="218ae93e1282097f-24" edge="1">
          <mxGeometry relative="1" as="geometry" />
        </mxCell>
        <mxCell id="218ae93e1282097f-52" value="" style="edgeStyle=elbowEdgeStyle;rounded=1;html=1;labelBackgroundColor=none;endArrow=block;endFill=1;strokeColor=#4D4D4D;strokeWidth=2;fontFamily=Verdana;fontSize=10;" parent="1" source="6257edae8c83ed4a-21" target="218ae93e1282097f-19" edge="1">
          <mxGeometry relative="1" as="geometry" />
        </mxCell>
        <mxCell id="218ae93e1282097f-53" value="" style="edgeStyle=elbowEdgeStyle;rounded=1;html=1;labelBackgroundColor=none;endArrow=block;endFill=1;strokeColor=#4D4D4D;strokeWidth=2;fontFamily=Verdana;fontSize=10;" parent="1" source="218ae93e1282097f-8" target="218ae93e1282097f-12" edge="1">
          <mxGeometry relative="1" as="geometry" />
        </mxCell>
        <mxCell id="218ae93e1282097f-55" value="Position 1" style="text;html=1;strokeColor=none;fillColor=none;align=center;verticalAlign=middle;whiteSpace=wrap;rounded=1;shadow=0;comic=0;fontFamily=Verdana;fontSize=10;" parent="1" vertex="1">
          <mxGeometry x="75" y="505" width="90" height="25" as="geometry" />
        </mxCell>
        <mxCell id="218ae93e1282097f-56" value="Position 1" style="text;html=1;strokeColor=none;fillColor=none;align=center;verticalAlign=middle;whiteSpace=wrap;rounded=1;shadow=0;comic=0;fontFamily=Verdana;fontSize=10;" parent="1" vertex="1">
          <mxGeometry x="175" y="505" width="90" height="25" as="geometry" />
        </mxCell>
        <mxCell id="218ae93e1282097f-57" value="Position 1" style="text;html=1;strokeColor=none;fillColor=none;align=center;verticalAlign=middle;whiteSpace=wrap;rounded=1;shadow=0;comic=0;fontFamily=Verdana;fontSize=10;" parent="1" vertex="1">
          <mxGeometry x="275" y="505" width="90" height="25" as="geometry" />
        </mxCell>
        <mxCell id="218ae93e1282097f-58" value="Position 2" style="text;html=1;strokeColor=none;fillColor=none;align=center;verticalAlign=middle;whiteSpace=wrap;rounded=1;shadow=0;comic=0;fontFamily=Verdana;fontSize=10;" parent="1" vertex="1">
          <mxGeometry x="75" y="540" width="90" height="25" as="geometry" />
        </mxCell>
        <mxCell id="218ae93e1282097f-59" value="Position 2" style="text;html=1;strokeColor=none;fillColor=none;align=center;verticalAlign=middle;whiteSpace=wrap;rounded=1;shadow=0;comic=0;fontFamily=Verdana;fontSize=10;" parent="1" vertex="1">
          <mxGeometry x="175" y="540" width="90" height="25" as="geometry" />
        </mxCell>
        <mxCell id="218ae93e1282097f-60" value="Position 3" style="text;html=1;strokeColor=none;fillColor=none;align=center;verticalAlign=middle;whiteSpace=wrap;rounded=1;shadow=0;comic=0;fontFamily=Verdana;fontSize=10;" parent="1" vertex="1">
          <mxGeometry x="275" y="540" width="90" height="25" as="geometry" />
        </mxCell>
        <mxCell id="218ae93e1282097f-61" value="Position 1" style="text;html=1;strokeColor=none;fillColor=none;align=center;verticalAlign=middle;whiteSpace=wrap;rounded=1;shadow=0;comic=0;fontFamily=Verdana;fontSize=10;" parent="1" vertex="1">
          <mxGeometry x="445" y="505" width="90" height="25" as="geometry" />
        </mxCell>
        <mxCell id="218ae93e1282097f-62" value="Position 1" style="text;html=1;strokeColor=none;fillColor=none;align=center;verticalAlign=middle;whiteSpace=wrap;rounded=1;shadow=0;comic=0;fontFamily=Verdana;fontSize=10;" parent="1" vertex="1">
          <mxGeometry x="545" y="505" width="90" height="25" as="geometry" />
        </mxCell>
        <mxCell id="218ae93e1282097f-63" value="Position 1" style="text;html=1;strokeColor=none;fillColor=none;align=center;verticalAlign=middle;whiteSpace=wrap;rounded=1;shadow=0;comic=0;fontFamily=Verdana;fontSize=10;" parent="1" vertex="1">
          <mxGeometry x="645" y="505" width="90" height="25" as="geometry" />
        </mxCell>
        <mxCell id="218ae93e1282097f-64" value="Position 2" style="text;html=1;strokeColor=none;fillColor=none;align=center;verticalAlign=middle;whiteSpace=wrap;rounded=1;shadow=0;comic=0;fontFamily=Verdana;fontSize=10;" parent="1" vertex="1">
          <mxGeometry x="445" y="540" width="90" height="25" as="geometry" />
        </mxCell>
        <mxCell id="218ae93e1282097f-65" value="Position 2" style="text;html=1;strokeColor=none;fillColor=none;align=center;verticalAlign=middle;whiteSpace=wrap;rounded=1;shadow=0;comic=0;fontFamily=Verdana;fontSize=10;" parent="1" vertex="1">
          <mxGeometry x="545" y="540" width="90" height="25" as="geometry" />
        </mxCell>
        <mxCell id="218ae93e1282097f-66" value="Position 3" style="text;html=1;strokeColor=none;fillColor=none;align=center;verticalAlign=middle;whiteSpace=wrap;rounded=1;shadow=0;comic=0;fontFamily=Verdana;fontSize=10;" parent="1" vertex="1">
          <mxGeometry x="645" y="540" width="90" height="25" as="geometry" />
        </mxCell>
        <mxCell id="218ae93e1282097f-67" value="Position 1" style="text;html=1;strokeColor=none;fillColor=none;align=center;verticalAlign=middle;whiteSpace=wrap;rounded=1;shadow=0;comic=0;fontFamily=Verdana;fontSize=10;" parent="1" vertex="1">
          <mxGeometry x="892" y="505" width="90" height="25" as="geometry" />
        </mxCell>
        <mxCell id="218ae93e1282097f-68" value="Position 1" style="text;html=1;strokeColor=none;fillColor=none;align=center;verticalAlign=middle;whiteSpace=wrap;rounded=1;shadow=0;comic=0;fontFamily=Verdana;fontSize=10;" parent="1" vertex="1">
          <mxGeometry x="992" y="505" width="90" height="25" as="geometry" />
        </mxCell>
        <mxCell id="218ae93e1282097f-69" value="Position 2" style="text;html=1;strokeColor=none;fillColor=none;align=center;verticalAlign=middle;whiteSpace=wrap;rounded=1;shadow=0;comic=0;fontFamily=Verdana;fontSize=10;" parent="1" vertex="1">
          <mxGeometry x="892" y="540" width="90" height="25" as="geometry" />
        </mxCell>
        <mxCell id="218ae93e1282097f-70" value="Position 2" style="text;html=1;strokeColor=none;fillColor=none;align=center;verticalAlign=middle;whiteSpace=wrap;rounded=1;shadow=0;comic=0;fontFamily=Verdana;fontSize=10;" parent="1" vertex="1">
          <mxGeometry x="992" y="540" width="90" height="25" as="geometry" />
        </mxCell>
        <mxCell id="218ae93e1282097f-71" value="Name" style="shape=actor;whiteSpace=wrap;html=1;rounded=0;shadow=0;comic=0;strokeWidth=1;fillColor=#CCCCCC;fontFamily=Verdana;align=center;strokeColor=none;labelPosition=center;verticalLabelPosition=bottom;verticalAlign=top;fontSize=10;" parent="1" vertex="1">
          <mxGeometry x="1327" y="450" width="24" height="30" as="geometry" />
        </mxCell>
        <mxCell id="218ae93e1282097f-72" value="Name" style="shape=actor;whiteSpace=wrap;html=1;rounded=0;shadow=0;comic=0;strokeWidth=1;fillColor=#CCCCCC;fontFamily=Verdana;align=center;strokeColor=none;labelPosition=center;verticalLabelPosition=bottom;verticalAlign=top;fontSize=10;" parent="1" vertex="1">
          <mxGeometry x="1435" y="450" width="24" height="30" as="geometry" />
        </mxCell>
        <mxCell id="218ae93e1282097f-73" value="Name" style="shape=actor;whiteSpace=wrap;html=1;rounded=0;shadow=0;comic=0;strokeWidth=1;fillColor=#CCCCCC;fontFamily=Verdana;align=center;strokeColor=none;labelPosition=center;verticalLabelPosition=bottom;verticalAlign=top;fontSize=10;" parent="1" vertex="1">
          <mxGeometry x="1235" y="450" width="24" height="30" as="geometry" />
        </mxCell>
        <mxCell id="218ae93e1282097f-74" value="Position 1" style="text;html=1;strokeColor=none;fillColor=none;align=center;verticalAlign=middle;whiteSpace=wrap;rounded=1;shadow=0;comic=0;fontFamily=Verdana;fontSize=10;" parent="1" vertex="1">
          <mxGeometry x="1202" y="505" width="90" height="25" as="geometry" />
        </mxCell>
        <mxCell id="218ae93e1282097f-75" value="Position 1" style="text;html=1;strokeColor=none;fillColor=none;align=center;verticalAlign=middle;whiteSpace=wrap;rounded=1;shadow=0;comic=0;fontFamily=Verdana;fontSize=10;" parent="1" vertex="1">
          <mxGeometry x="1302" y="505" width="90" height="25" as="geometry" />
        </mxCell>
        <mxCell id="218ae93e1282097f-76" value="Position 1" style="text;html=1;strokeColor=none;fillColor=none;align=center;verticalAlign=middle;whiteSpace=wrap;rounded=1;shadow=0;comic=0;fontFamily=Verdana;fontSize=10;" parent="1" vertex="1">
          <mxGeometry x="1402" y="505" width="90" height="25" as="geometry" />
        </mxCell>
        <mxCell id="218ae93e1282097f-77" value="Position 2" style="text;html=1;strokeColor=none;fillColor=none;align=center;verticalAlign=middle;whiteSpace=wrap;rounded=1;shadow=0;comic=0;fontFamily=Verdana;fontSize=10;" parent="1" vertex="1">
          <mxGeometry x="1202" y="540" width="90" height="25" as="geometry" />
        </mxCell>
        <mxCell id="218ae93e1282097f-78" value="Position 2" style="text;html=1;strokeColor=none;fillColor=none;align=center;verticalAlign=middle;whiteSpace=wrap;rounded=1;shadow=0;comic=0;fontFamily=Verdana;fontSize=10;" parent="1" vertex="1">
          <mxGeometry x="1302" y="540" width="90" height="25" as="geometry" />
        </mxCell>
        <mxCell id="218ae93e1282097f-79" value="Position 3" style="text;html=1;strokeColor=none;fillColor=none;align=center;verticalAlign=middle;whiteSpace=wrap;rounded=1;shadow=0;comic=0;fontFamily=Verdana;fontSize=10;" parent="1" vertex="1">
          <mxGeometry x="1402" y="540" width="90" height="25" as="geometry" />
        </mxCell>
        <mxCell id="218ae93e1282097f-80" value="Position 1" style="text;html=1;strokeColor=none;fillColor=none;align=center;verticalAlign=middle;whiteSpace=wrap;rounded=1;shadow=0;comic=0;fontFamily=Verdana;fontSize=10;" parent="1" vertex="1">
          <mxGeometry x="1610" y="505" width="90" height="25" as="geometry" />
        </mxCell>
        <mxCell id="218ae93e1282097f-81" value="Position 1" style="text;html=1;strokeColor=none;fillColor=none;align=center;verticalAlign=middle;whiteSpace=wrap;rounded=1;shadow=0;comic=0;fontFamily=Verdana;fontSize=10;" parent="1" vertex="1">
          <mxGeometry x="1710" y="505" width="90" height="25" as="geometry" />
        </mxCell>
        <mxCell id="218ae93e1282097f-82" value="Position 1" style="text;html=1;strokeColor=none;fillColor=none;align=center;verticalAlign=middle;whiteSpace=wrap;rounded=1;shadow=0;comic=0;fontFamily=Verdana;fontSize=10;" parent="1" vertex="1">
          <mxGeometry x="1810" y="505" width="90" height="25" as="geometry" />
        </mxCell>
        <mxCell id="218ae93e1282097f-83" value="Position 2" style="text;html=1;strokeColor=none;fillColor=none;align=center;verticalAlign=middle;whiteSpace=wrap;rounded=1;shadow=0;comic=0;fontFamily=Verdana;fontSize=10;" parent="1" vertex="1">
          <mxGeometry x="1610" y="540" width="90" height="25" as="geometry" />
        </mxCell>
        <mxCell id="218ae93e1282097f-84" value="Position 2" style="text;html=1;strokeColor=none;fillColor=none;align=center;verticalAlign=middle;whiteSpace=wrap;rounded=1;shadow=0;comic=0;fontFamily=Verdana;fontSize=10;" parent="1" vertex="1">
          <mxGeometry x="1710" y="540" width="90" height="25" as="geometry" />
        </mxCell>
        <mxCell id="218ae93e1282097f-85" value="Position 3" style="text;html=1;strokeColor=none;fillColor=none;align=center;verticalAlign=middle;whiteSpace=wrap;rounded=1;shadow=0;comic=0;fontFamily=Verdana;fontSize=10;" parent="1" vertex="1">
          <mxGeometry x="1810" y="540" width="90" height="25" as="geometry" />
        </mxCell>
        <mxCell id="218ae93e1282097f-86" value="Position 1" style="text;html=1;strokeColor=none;fillColor=none;align=center;verticalAlign=middle;whiteSpace=wrap;rounded=1;shadow=0;comic=0;fontFamily=Verdana;fontSize=10;" parent="1" vertex="1">
          <mxGeometry x="1910" y="505" width="90" height="25" as="geometry" />
        </mxCell>
        <mxCell id="218ae93e1282097f-87" value="Position 3" style="text;html=1;strokeColor=none;fillColor=none;align=center;verticalAlign=middle;whiteSpace=wrap;rounded=1;shadow=0;comic=0;fontFamily=Verdana;fontSize=10;" parent="1" vertex="1">
          <mxGeometry x="1910" y="540" width="90" height="25" as="geometry" />
        </mxCell>
        <mxCell id="218ae93e1282097f-8" value="&lt;span&gt;Name&lt;/span&gt;&lt;div&gt;&lt;span style=&quot;font-weight: normal&quot;&gt;Position&lt;/span&gt;&lt;/div&gt;" style="whiteSpace=wrap;html=1;rounded=1;shadow=0;comic=0;strokeWidth=2;fontFamily=Verdana;align=center;fontSize=12;fontStyle=1" parent="1" vertex="1">
          <mxGeometry x="144" y="330" width="200" height="50" as="geometry" />
        </mxCell>
        <mxCell id="218ae93e1282097f-9" value="" style="shape=actor;whiteSpace=wrap;html=1;rounded=0;shadow=0;comic=0;strokeWidth=1;fillColor=#CCCCCC;fontFamily=Verdana;align=center;strokeColor=none;fontSize=12;fontStyle=1" parent="1" vertex="1">
          <mxGeometry x="158" y="340" width="24" height="30" as="geometry" />
        </mxCell>
        <mxCell id="6257edae8c83ed4a-9" value="Name&lt;div&gt;&lt;span&gt;Position&lt;/span&gt;&lt;/div&gt;" style="whiteSpace=wrap;html=1;rounded=1;shadow=0;comic=0;strokeWidth=2;fontFamily=Verdana;align=center;fontSize=12;fontStyle=1" parent="1" vertex="1">
          <mxGeometry x="526" y="210" width="200" height="50" as="geometry" />
        </mxCell>
        <mxCell id="6257edae8c83ed4a-10" value="" style="shape=actor;whiteSpace=wrap;html=1;rounded=0;shadow=0;comic=0;strokeWidth=1;fillColor=#CCCCCC;fontFamily=Verdana;align=center;strokeColor=none;fontSize=12;fontStyle=1" parent="1" vertex="1">
          <mxGeometry x="540" y="220" width="24" height="30" as="geometry" />
        </mxCell>
        <mxCell id="6257edae8c83ed4a-21" value="Name&lt;div&gt;&lt;span&gt;Position&lt;/span&gt;&lt;/div&gt;" style="whiteSpace=wrap;html=1;rounded=1;shadow=0;comic=0;strokeWidth=2;fontFamily=Verdana;align=center;fontSize=12;fontStyle=1" parent="1" vertex="1">
          <mxGeometry x="524" y="330" width="200" height="50" as="geometry" />
        </mxCell>
        <mxCell id="6257edae8c83ed4a-22" value="" style="shape=actor;whiteSpace=wrap;html=1;rounded=0;shadow=0;comic=0;strokeWidth=1;fillColor=#CCCCCC;fontFamily=Verdana;align=center;strokeColor=none;fontSize=12;fontStyle=1" parent="1" vertex="1">
          <mxGeometry x="538" y="340" width="24" height="30" as="geometry" />
        </mxCell>
        <mxCell id="6257edae8c83ed4a-12" value="Name&lt;div&gt;&lt;span&gt;Position&lt;/span&gt;&lt;/div&gt;" style="whiteSpace=wrap;html=1;rounded=1;shadow=0;comic=0;strokeWidth=2;fontFamily=Verdana;align=center;fontSize=12;fontStyle=1" parent="1" vertex="1">
          <mxGeometry x="887" y="330" width="200" height="50" as="geometry" />
        </mxCell>
        <mxCell id="6257edae8c83ed4a-13" value="" style="shape=actor;whiteSpace=wrap;html=1;rounded=0;shadow=0;comic=0;strokeWidth=1;fillColor=#CCCCCC;fontFamily=Verdana;align=center;strokeColor=none;fontSize=12;fontStyle=1" parent="1" vertex="1">
          <mxGeometry x="901" y="340" width="24" height="30" as="geometry" />
        </mxCell>
        <mxCell id="6257edae8c83ed4a-1" value="Name&lt;div&gt;&lt;span&gt;Position&lt;/span&gt;&lt;/div&gt;" style="whiteSpace=wrap;html=1;rounded=1;shadow=0;comic=0;strokeWidth=2;fontFamily=Verdana;align=center;fontSize=12;fontStyle=1" parent="1" vertex="1">
          <mxGeometry x="887" y="140" width="200" height="50" as="geometry" />
        </mxCell>
        <mxCell id="6257edae8c83ed4a-2" value="" style="shape=actor;whiteSpace=wrap;html=1;rounded=0;shadow=0;comic=0;strokeWidth=1;fillColor=#CCCCCC;fontFamily=Verdana;align=center;strokeColor=none;fontSize=12;fontStyle=1" parent="1" vertex="1">
          <mxGeometry x="901" y="150" width="24" height="30" as="geometry" />
        </mxCell>
        <mxCell id="218ae93e1282097f-2" value="Name&lt;div&gt;&lt;span&gt;Position&lt;/span&gt;&lt;/div&gt;" style="whiteSpace=wrap;html=1;rounded=1;shadow=0;comic=0;strokeWidth=2;fontFamily=Verdana;align=center;fontSize=12;fontStyle=1" parent="1" vertex="1">
          <mxGeometry x="1247" y="210" width="200" height="50" as="geometry" />
        </mxCell>
        <mxCell id="218ae93e1282097f-3" value="" style="shape=actor;whiteSpace=wrap;html=1;rounded=0;shadow=0;comic=0;strokeWidth=1;fillColor=#CCCCCC;fontFamily=Verdana;align=center;strokeColor=none;fontSize=12;fontStyle=1" parent="1" vertex="1">
          <mxGeometry x="1261" y="220" width="24" height="30" as="geometry" />
        </mxCell>
        <mxCell id="6257edae8c83ed4a-24" value="Name&lt;div&gt;&lt;span&gt;Position&lt;/span&gt;&lt;/div&gt;" style="whiteSpace=wrap;html=1;rounded=1;shadow=0;comic=0;strokeWidth=2;fontFamily=Verdana;align=center;fontSize=12;fontStyle=1" parent="1" vertex="1">
          <mxGeometry x="1247" y="330" width="200" height="50" as="geometry" />
        </mxCell>
        <mxCell id="6257edae8c83ed4a-25" value="" style="shape=actor;whiteSpace=wrap;html=1;rounded=0;shadow=0;comic=0;strokeWidth=1;fillColor=#CCCCCC;fontFamily=Verdana;align=center;strokeColor=none;fontSize=12;fontStyle=1" parent="1" vertex="1">
          <mxGeometry x="1261" y="340" width="24" height="30" as="geometry" />
        </mxCell>
        <mxCell id="218ae93e1282097f-5" value="Name&lt;div&gt;&lt;span&gt;Position&lt;/span&gt;&lt;/div&gt;" style="whiteSpace=wrap;html=1;rounded=1;shadow=0;comic=0;strokeWidth=2;fontFamily=Verdana;align=center;fontSize=12;fontStyle=1" parent="1" vertex="1">
          <mxGeometry x="1637" y="330" width="200" height="50" as="geometry" />
        </mxCell>
        <mxCell id="218ae93e1282097f-6" value="" style="shape=actor;whiteSpace=wrap;html=1;rounded=0;shadow=0;comic=0;strokeWidth=1;fillColor=#CCCCCC;fontFamily=Verdana;align=center;strokeColor=none;fontSize=12;fontStyle=1" parent="1" vertex="1">
          <mxGeometry x="1651" y="340" width="24" height="30" as="geometry" />
        </mxCell>
      </root>
    </mxGraphModel>
  </diagram>
</mxfile>
